<svg width="200" height="60" viewBox="0 0 200 60" fill="none" xmlns="http://www.w3.org/2000/svg">
<rect width="200" height="60" fill="#EAEAEA"/>
<path d="M74.8147 36V23.4H76.1467V34.848H83.2027V36H74.8147ZM90.6762 36.108C89.7282 36.108 88.8462 35.952 88.0302 35.64C87.2262 35.316 86.5242 34.866 85.9242 34.29C85.3362 33.702 84.8742 33.024 84.5382 32.256C84.2142 31.476 84.0522 30.624 84.0522 29.7C84.0522 28.776 84.2142 27.93 84.5382 27.162C84.8742 26.382 85.3362 25.704 85.9242 25.128C86.5242 24.54 87.2262 24.09 88.0302 23.778C88.8342 23.454 89.7162 23.292 90.6762 23.292C91.6242 23.292 92.5002 23.454 93.3042 23.778C94.1082 24.09 94.8042 24.534 95.3922 25.11C95.9922 25.686 96.4542 26.364 96.7782 27.144C97.1142 27.924 97.2822 28.776 97.2822 29.7C97.2822 30.624 97.1142 31.476 96.7782 32.256C96.4542 33.036 95.9922 33.714 95.3922 34.29C94.8042 34.866 94.1082 35.316 93.3042 35.64C92.5002 35.952 91.6242 36.108 90.6762 36.108ZM90.6762 34.92C91.4322 34.92 92.1282 34.794 92.7642 34.542C93.4122 34.278 93.9702 33.912 94.4382 33.444C94.9182 32.964 95.2902 32.412 95.5542 31.788C95.8182 31.152 95.9502 30.456 95.9502 29.7C95.9502 28.944 95.8182 28.254 95.5542 27.63C95.2902 26.994 94.9182 26.442 94.4382 25.974C93.9702 25.494 93.4122 25.128 92.7642 24.876C92.1282 24.612 91.4322 24.48 90.6762 24.48C89.9202 24.48 89.2182 24.612 88.5702 24.876C87.9222 25.128 87.3582 25.494 86.8782 25.974C86.4102 26.442 86.0382 26.994 85.7622 27.63C85.4982 28.254 85.3662 28.944 85.3662 29.7C85.3662 30.444 85.4982 31.134 85.7622 31.77C86.0382 32.406 86.4102 32.964 86.8782 33.444C87.3582 33.912 87.9222 34.278 88.5702 34.542C89.2182 34.794 89.9202 34.92 90.6762 34.92ZM105.794 36.108C104.834 36.108 103.946 35.952 103.13 35.64C102.326 35.316 101.624 34.866 101.024 34.29C100.436 33.714 99.9738 33.036 99.6378 32.256C99.3138 31.476 99.1518 30.624 99.1518 29.7C99.1518 28.776 99.3138 27.924 99.6378 27.144C99.9738 26.364 100.442 25.686 101.042 25.11C101.642 24.534 102.344 24.09 103.148 23.778C103.964 23.454 104.852 23.292 105.812 23.292C106.772 23.292 107.648 23.442 108.44 23.742C109.244 24.042 109.928 24.498 110.492 25.11L109.664 25.956C109.136 25.428 108.554 25.05 107.918 24.822C107.282 24.594 106.598 24.48 105.866 24.48C105.086 24.48 104.366 24.612 103.706 24.876C103.058 25.128 102.488 25.494 101.996 25.974C101.516 26.442 101.138 26.994 100.862 27.63C100.598 28.254 100.466 28.944 100.466 29.7C100.466 30.444 100.598 31.134 100.862 31.77C101.138 32.406 101.516 32.964 101.996 33.444C102.488 33.912 103.058 34.278 103.706 34.542C104.366 34.794 105.08 34.92 105.848 34.92C106.568 34.92 107.246 34.812 107.882 34.596C108.53 34.38 109.124 34.014 109.664 33.498L110.42 34.506C109.82 35.034 109.118 35.436 108.314 35.712C107.51 35.976 106.67 36.108 105.794 36.108ZM109.142 34.344V29.7H110.42V34.506L109.142 34.344ZM119.698 36.108C118.75 36.108 117.868 35.952 117.052 35.64C116.248 35.316 115.546 34.866 114.946 34.29C114.358 33.702 113.896 33.024 113.56 32.256C113.236 31.476 113.074 30.624 113.074 29.7C113.074 28.776 113.236 27.93 113.56 27.162C113.896 26.382 114.358 25.704 114.946 25.128C115.546 24.54 116.248 24.09 117.052 23.778C117.856 23.454 118.738 23.292 119.698 23.292C120.646 23.292 121.522 23.454 122.326 23.778C123.13 24.09 123.826 24.534 124.414 25.11C125.014 25.686 125.476 26.364 125.8 27.144C126.136 27.924 126.304 28.776 126.304 29.7C126.304 30.624 126.136 31.476 125.8 32.256C125.476 33.036 125.014 33.714 124.414 34.29C123.826 34.866 123.13 35.316 122.326 35.64C121.522 35.952 120.646 36.108 119.698 36.108ZM119.698 34.92C120.454 34.92 121.15 34.794 121.786 34.542C122.434 34.278 122.992 33.912 123.46 33.444C123.94 32.964 124.312 32.412 124.576 31.788C124.84 31.152 124.972 30.456 124.972 29.7C124.972 28.944 124.84 28.254 124.576 27.63C124.312 26.994 123.94 26.442 123.46 25.974C122.992 25.494 122.434 25.128 121.786 24.876C121.15 24.612 120.454 24.48 119.698 24.48C118.942 24.48 118.24 24.612 117.592 24.876C116.944 25.128 116.38 25.494 115.9 25.974C115.432 26.442 115.06 26.994 114.784 27.63C114.52 28.254 114.388 28.944 114.388 29.7C114.388 30.444 114.52 31.134 114.784 31.77C115.06 32.406 115.432 32.964 115.9 33.444C116.38 33.912 116.944 34.278 117.592 34.542C118.24 34.794 118.942 34.92 119.698 34.92Z" fill="black"/>
</svg>
